<?xml version="1.0" standalone="no"?>
<!DOCTYPE svg PUBLIC "-//W3C//DTD SVG 20010904//EN"
 "http://www.w3.org/TR/2001/REC-SVG-20010904/DTD/svg10.dtd">
<svg version="1.0" xmlns="http://www.w3.org/2000/svg"
 width="1000.000000pt" height="1000.000000pt" viewBox="0 0 1000.000000 1000.000000"
 preserveAspectRatio="xMidYMid meet">

<g transform="translate(0.000000,1000.000000) scale(0.100000,-0.100000)"
fill="#000000" stroke="none">
<path d="M1723 5602 c-18 -19 -20 -27 -11 -34 10 -6 9 -8 -3 -8 -25 0 -30 -26
-13 -63 9 -17 264 -280 567 -583 550 -550 552 -552 607 -564 48 -12 540 -11
1430 1 45 0 51 2 31 10 -13 5 -32 7 -42 4 -10 -4 -27 -2 -36 4 -14 8 -3 11 47
12 61 1 63 1 30 11 -19 5 -53 8 -75 5 -22 -3 -34 -3 -27 0 17 7 15 20 -5 27
-31 11 -63 33 -58 38 3 3 -6 3 -20 1 -15 -3 -25 -1 -25 6 0 6 -9 11 -20 11
-11 0 -20 4 -20 9 0 5 -8 11 -17 15 -22 7 -56 28 -64 39 -3 5 -19 5 -35 2 -22
-5 -25 -4 -14 4 12 9 11 11 -7 11 -13 0 -23 4 -23 9 0 5 -8 12 -17 15 -10 3
-29 13 -43 21 -14 8 -35 15 -48 15 -24 0 -52 21 -52 39 0 5 -23 11 -52 13 -30
2 -53 8 -56 16 -2 6 3 12 12 12 9 0 16 5 16 10 0 6 -6 10 -14 10 -8 0 -18 -4
-21 -10 -8 -13 -45 -13 -45 -1 0 5 -8 12 -17 14 -17 4 -17 5 0 6 9 0 17 8 17
16 0 18 -37 20 -42 3 -3 -7 -11 -9 -24 -3 -17 7 -17 8 -1 12 21 5 23 23 2 23
-8 0 -15 5 -15 10 0 6 -9 10 -20 10 -11 0 -23 6 -26 14 -8 20 -64 32 -74 16
-5 -8 -15 -10 -26 -5 -18 8 -18 8 -1 12 21 5 23 23 2 23 -8 0 -15 5 -15 10 0
6 -26 10 -57 10 -55 1 -57 2 -38 16 19 15 18 16 -17 10 -21 -4 -39 -2 -43 4
-3 5 0 10 8 10 15 0 32 29 22 38 -2 3 -30 4 -60 3 -32 -1 -55 3 -55 9 0 5 -18
13 -40 16 -24 4 -40 12 -40 20 0 8 5 14 10 14 6 0 10 5 10 10 0 6 -13 10 -30
10 -16 0 -30 5 -30 10 0 6 -9 10 -20 10 -11 0 -20 5 -20 10 0 6 -7 10 -16 10
-9 0 -25 10 -36 22 -16 19 -21 20 -29 8 -8 -11 -12 -12 -16 -2 -2 6 -13 12
-24 12 -10 0 -19 5 -19 10 0 6 -7 10 -16 10 -20 0 -56 39 -48 51 3 5 -4 9 -15
9 -12 0 -21 5 -21 10 0 6 -6 10 -14 10 -7 0 -19 7 -26 15 -9 11 -22 14 -41 10
-22 -5 -30 -2 -39 15 -8 14 -18 20 -30 17 -12 -3 -17 0 -14 8 3 7 -3 15 -13
19 -10 3 -29 13 -43 21 -14 9 -40 14 -60 12 -19 -2 -27 -2 -17 0 23 6 22 23
-3 23 -11 0 -20 4 -20 9 0 5 -8 11 -17 15 -20 6 -55 27 -63 37 -3 4 -23 6 -45
5 -32 -1 -39 2 -37 15 1 9 -6 20 -15 23 -33 13 -63 31 -63 38 0 14 -27 9 -40
-7 -16 -19 -40 -19 -40 -1 0 10 15 17 43 20 23 3 56 8 72 10 17 2 -3 2 -42 1
-40 -2 -73 1 -73 6 0 5 5 9 10 9 6 0 10 5 10 11 0 8 -17 10 -50 7 -38 -4 -50
-2 -50 8 0 9 -12 14 -34 14 -46 0 -56 18 -14 23 18 2 1 5 -39 5 -39 1 -75 7
-78 12 -3 6 -11 10 -16 10 -6 0 -7 -4 -4 -10 7 -11 -8 -14 -19 -3 -15 16 -51
8 -73 -15z m32 8 c-3 -5 -12 -10 -18 -10 -7 0 -6 4 3 10 19 12 23 12 15 0z
m405 -140 c0 -5 -4 -10 -10 -10 -5 0 -10 5 -10 10 0 6 5 10 10 10 6 0 10 -4
10 -10z m320 -160 c0 -5 -4 -10 -10 -10 -5 0 -10 5 -10 10 0 6 5 10 10 10 6 0
10 -4 10 -10z m1385 -748 c-3 -3 -11 0 -18 7 -9 10 -8 11 6 5 10 -3 15 -9 12
-12z"/>
<path d="M1903 5623 c37 -2 96 -2 130 0 34 2 4 3 -68 3 -71 0 -99 -1 -62 -3z"/>
<path d="M2103 5573 c15 -2 39 -2 55 0 15 2 2 4 -28 4 -30 0 -43 -2 -27 -4z"/>
<path d="M2248 5433 c6 -2 18 -2 25 0 6 3 1 5 -13 5 -14 0 -19 -2 -12 -5z"/>
<path d="M2400 5390 c0 -5 9 -10 20 -10 11 0 20 5 20 10 0 6 -9 10 -20 10 -11
0 -20 -4 -20 -10z"/>
<path d="M4488 4353 c6 -2 18 -2 25 0 6 3 1 5 -13 5 -14 0 -19 -2 -12 -5z"/>
<path d="M2835 3631 c-48 -22 -1111 -1070 -1139 -1124 -23 -42 -16 -79 24
-118 l28 -29 2703 0 c1995 0 2712 3 2740 11 43 13 110 64 106 82 -1 6 3 11 9
12 14 0 69 54 69 66 0 5 4 9 9 8 10 -1 96 82 96 93 0 4 -5 8 -11 8 -5 0 -8 -4
-4 -9 3 -5 1 -12 -4 -15 -5 -4 -8 1 -7 9 1 8 17 26 36 40 41 30 52 33 22 5
-12 -12 -22 -24 -22 -27 0 -4 13 6 30 22 16 15 27 31 25 35 -3 4 5 10 18 14
17 5 19 8 8 15 -7 5 -11 14 -7 19 5 8 -3 8 -26 0 -24 -9 -33 -8 -36 0 -7 21
-23 13 -22 -10 1 -13 2 -31 1 -40 -1 -17 -2 -17 -21 -1 -11 10 -20 25 -20 35
0 13 -8 18 -29 18 -16 0 -36 7 -45 15 -8 8 -24 15 -36 15 -23 0 -50 21 -50 39
0 6 -18 11 -40 11 -36 0 -40 3 -40 25 0 23 -4 25 -40 25 -33 0 -40 3 -40 20 0
22 -35 29 -42 8 -3 -7 -11 -9 -24 -3 -17 7 -17 8 -1 12 21 5 23 23 2 23 -8 0
-15 5 -15 10 0 6 -26 10 -57 10 -55 1 -57 2 -38 16 19 15 18 16 -17 10 -21 -4
-39 -2 -43 4 -3 5 1 10 9 10 9 0 16 3 16 6 0 16 -38 33 -72 34 -31 0 -38 4
-38 20 0 13 -7 20 -20 20 -11 0 -20 -4 -20 -10 0 -14 -27 -13 -36 2 -4 6 -2
14 4 16 26 8 -18 32 -60 32 -32 0 -46 5 -56 20 -7 11 -21 20 -32 20 -22 0 -27
16 -7 23 6 2 8 8 4 13 -4 5 -13 2 -18 -6 -8 -11 -12 -12 -16 -2 -2 6 -13 12
-24 12 -10 0 -19 5 -19 10 0 6 -10 10 -22 10 -19 0 -20 2 -8 10 13 8 12 10 -4
10 -10 0 -27 10 -38 22 -16 19 -21 20 -28 8 -5 -8 -13 -11 -17 -6 -4 5 -2 11
5 13 6 3 12 11 12 19 0 10 -12 14 -40 14 -22 0 -40 5 -40 10 0 6 -7 10 -15 10
-9 0 -18 7 -21 15 -4 8 -15 15 -25 15 -10 0 -19 4 -19 9 0 5 -8 11 -17 15 -10
3 -26 11 -36 18 -14 11 -19 10 -26 -1 -7 -11 -14 -9 -34 12 -13 15 -29 27 -36
27 -6 0 -11 5 -11 10 0 6 9 10 20 10 11 0 20 5 20 10 0 6 -9 10 -20 10 -11 0
-20 -4 -20 -10 0 -15 -26 -12 -40 5 -7 8 -27 17 -46 21 -19 3 -34 10 -34 15 0
5 -9 9 -20 9 -11 0 -20 3 -20 8 0 7 -30 25 -62 38 -10 3 -18 10 -18 15 0 15
-22 10 -43 -8 -18 -17 -19 -17 -32 0 -7 10 -10 27 -7 39 4 17 2 20 -11 15 -10
-4 -25 -3 -34 0 -15 6 -14 8 7 14 14 4 -621 7 -1410 8 -1374 1 -1437 0 -1475
-18z m2882 -27 c-3 -3 -12 -4 -19 -1 -8 3 -5 6 6 6 11 1 17 -2 13 -5z m123
-54 c0 -5 -4 -10 -10 -10 -5 0 -10 5 -10 10 0 6 5 10 10 10 6 0 10 -4 10 -10z
m1701 -833 c-6 -8 -8 -16 -5 -20 3 -3 -4 -3 -15 0 -17 4 -19 8 -10 19 6 8 18
14 26 14 12 0 13 -3 4 -13z"/>
<path d="M5768 3593 c6 -2 18 -2 25 0 6 3 1 5 -13 5 -14 0 -19 -2 -12 -5z"/>
<path d="M7533 2785 c-9 -10 -9 -16 -2 -20 14 -9 22 0 17 18 -2 13 -5 13 -15
2z"/>
<path d="M7571 2784 c0 -11 3 -14 6 -6 3 7 2 16 -1 19 -3 4 -6 -2 -5 -13z"/>
<path d="M7614 2782 c3 -6 -4 -18 -16 -26 -12 -9 -18 -16 -12 -16 6 0 19 9 28
19 13 14 14 21 5 27 -7 4 -10 3 -5 -4z"/>
</g>
</svg>
